<mxfile host="app.diagrams.net" agent="Mozilla/5.0 (Windows NT 10.0; Win64; x64) AppleWebKit/537.36 (KHTML, like Gecko) Chrome/140.0.0.0 Safari/537.36" version="28.2.4">
  <diagram name="Page-1" id="-1lKUljYdnf8NOwdghP-">
    <mxGraphModel dx="786" dy="451" grid="1" gridSize="12" guides="1" tooltips="1" connect="1" arrows="1" fold="1" page="1" pageScale="1" pageWidth="850" pageHeight="1100" math="0" shadow="0">
      <root>
        <mxCell id="0" />
        <mxCell id="1" parent="0" />
        <mxCell id="l3k6-hPdW42bNNnXbaSF-8" value="" style="edgeStyle=orthogonalEdgeStyle;rounded=0;orthogonalLoop=1;jettySize=auto;html=1;" edge="1" parent="1" source="l3k6-hPdW42bNNnXbaSF-1" target="l3k6-hPdW42bNNnXbaSF-2">
          <mxGeometry relative="1" as="geometry" />
        </mxCell>
        <mxCell id="l3k6-hPdW42bNNnXbaSF-1" value="&lt;font size=&quot;1&quot;&gt;plan&lt;/font&gt;" style="ellipse;whiteSpace=wrap;html=1;fontStyle=3;fontSize=30;" vertex="1" parent="1">
          <mxGeometry x="290" y="40" width="120" height="70" as="geometry" />
        </mxCell>
        <mxCell id="l3k6-hPdW42bNNnXbaSF-9" value="" style="edgeStyle=orthogonalEdgeStyle;rounded=0;orthogonalLoop=1;jettySize=auto;html=1;" edge="1" parent="1" source="l3k6-hPdW42bNNnXbaSF-2" target="l3k6-hPdW42bNNnXbaSF-4">
          <mxGeometry relative="1" as="geometry" />
        </mxCell>
        <mxCell id="l3k6-hPdW42bNNnXbaSF-2" value="develop" style="ellipse;whiteSpace=wrap;html=1;" vertex="1" parent="1">
          <mxGeometry x="290" y="150" width="120" height="70" as="geometry" />
        </mxCell>
        <mxCell id="l3k6-hPdW42bNNnXbaSF-3" style="edgeStyle=orthogonalEdgeStyle;rounded=0;orthogonalLoop=1;jettySize=auto;html=1;exitX=0.5;exitY=1;exitDx=0;exitDy=0;" edge="1" parent="1" source="l3k6-hPdW42bNNnXbaSF-1" target="l3k6-hPdW42bNNnXbaSF-1">
          <mxGeometry relative="1" as="geometry" />
        </mxCell>
        <mxCell id="l3k6-hPdW42bNNnXbaSF-10" value="" style="edgeStyle=orthogonalEdgeStyle;rounded=0;orthogonalLoop=1;jettySize=auto;html=1;" edge="1" parent="1" source="l3k6-hPdW42bNNnXbaSF-4" target="l3k6-hPdW42bNNnXbaSF-5">
          <mxGeometry relative="1" as="geometry" />
        </mxCell>
        <mxCell id="l3k6-hPdW42bNNnXbaSF-4" value="build" style="ellipse;whiteSpace=wrap;html=1;" vertex="1" parent="1">
          <mxGeometry x="290" y="250" width="120" height="70" as="geometry" />
        </mxCell>
        <mxCell id="l3k6-hPdW42bNNnXbaSF-11" value="" style="edgeStyle=orthogonalEdgeStyle;rounded=0;orthogonalLoop=1;jettySize=auto;html=1;" edge="1" parent="1" source="l3k6-hPdW42bNNnXbaSF-5" target="l3k6-hPdW42bNNnXbaSF-6">
          <mxGeometry relative="1" as="geometry" />
        </mxCell>
        <mxCell id="l3k6-hPdW42bNNnXbaSF-5" value="test" style="ellipse;whiteSpace=wrap;html=1;" vertex="1" parent="1">
          <mxGeometry x="290" y="350" width="120" height="70" as="geometry" />
        </mxCell>
        <mxCell id="l3k6-hPdW42bNNnXbaSF-6" value="Release" style="ellipse;whiteSpace=wrap;html=1;" vertex="1" parent="1">
          <mxGeometry x="290" y="450" width="120" height="70" as="geometry" />
        </mxCell>
      </root>
    </mxGraphModel>
  </diagram>
</mxfile>
